<svg width="150" height="135" viewBox="0 0 150 135" fill="none" xmlns="http://www.w3.org/2000/svg">
<g clip-path="url(#clip0_1084_3205)">
<path d="M76.8241 0.297999L71.9434 1.55664L11.8118 17.0634L6.93104 18.322C4.56199 18.9358 2.53314 20.4643 1.28961 22.572C0.0460722 24.6798 -0.310596 27.1948 0.297851 29.5652L21.4618 111.634C22.0756 114.003 23.604 116.032 25.7118 117.276C27.8196 118.519 30.3345 118.876 32.705 118.267L32.7176 118.264L102.585 100.247L102.598 100.243C104.967 99.6297 106.996 98.1012 108.239 95.9935C109.483 93.8857 109.84 91.3707 109.231 89.0003L88.0673 6.93123C87.4535 4.56218 85.9251 2.53332 83.8173 1.28978C81.7095 0.0462319 79.1945 -0.310445 76.8241 0.297999Z" fill="#F2F2F2"/>
<path d="M77.4833 2.86679L71.7025 4.35757L13.371 19.4001L7.59025 20.8909C5.90319 21.3279 4.45839 22.4164 3.57284 23.9174C2.68728 25.4184 2.43329 27.2093 2.86658 28.8974L24.0305 110.966C24.4676 112.653 25.556 114.098 27.057 114.984C28.558 115.869 30.349 116.123 32.037 115.69L32.0496 115.687L101.917 97.6693L101.93 97.666C103.617 97.2289 105.062 96.1405 105.947 94.6395C106.833 93.1385 107.087 91.3475 106.654 89.6595L85.4898 7.59047C85.0527 5.90343 83.9643 4.45864 82.4633 3.57309C80.9623 2.68753 79.1714 2.43352 77.4833 2.86679Z" fill="white"/>
<path d="M73.1184 29.4423L37.7739 38.5569C37.3791 38.6587 36.9601 38.5995 36.609 38.3924C36.2579 38.1852 36.0034 37.8471 35.9016 37.4523C35.7998 37.0575 35.859 36.6385 36.0661 36.2874C36.2733 35.9363 36.6114 35.6818 37.0062 35.58L72.3507 26.4654C72.7453 26.364 73.1641 26.4234 73.5149 26.6306C73.8657 26.8378 74.1199 27.1758 74.2217 27.5703C74.3234 27.9648 74.2644 28.3836 74.0575 28.7346C73.8506 29.0856 73.5128 29.3402 73.1184 29.4423Z" fill="#F2F2F2"/>
<path d="M80.5537 32.883L39.0694 43.581C38.6746 43.6828 38.2556 43.6236 37.9044 43.4165C37.5533 43.2093 37.2989 42.8712 37.1971 42.4764C37.0953 42.0816 37.1545 41.6626 37.3616 41.3115C37.5688 40.9604 37.9069 40.7059 38.3017 40.6041L79.786 29.9061C80.1807 29.8043 80.5998 29.8635 80.9509 30.0707C81.302 30.2778 81.5565 30.616 81.6583 31.0107C81.7601 31.4055 81.7009 31.8245 81.4937 32.1756C81.2866 32.5268 80.9484 32.7812 80.5537 32.883Z" fill="#F2F2F2"/>
<path d="M78.924 51.9553L43.5795 61.0699C43.384 61.1203 43.1805 61.1317 42.9807 61.1035C42.7808 61.0753 42.5884 61.008 42.4146 60.9054C42.2407 60.8028 42.0888 60.667 41.9674 60.5057C41.846 60.3444 41.7576 60.1608 41.7072 59.9653C41.6568 59.7698 41.6454 59.5664 41.6736 59.3665C41.7018 59.1666 41.7692 58.9743 41.8717 58.8004C41.9743 58.6265 42.1101 58.4746 42.2714 58.3532C42.4327 58.2318 42.6163 58.1434 42.8118 58.093L78.1563 48.9784C78.3517 48.928 78.5552 48.9166 78.7551 48.9448C78.955 48.973 79.1473 49.0403 79.3212 49.1429C79.495 49.2455 79.647 49.3813 79.7684 49.5426C79.8897 49.7039 79.9782 49.8875 80.0286 50.083C80.079 50.2785 80.0904 50.4819 80.0621 50.6818C80.0339 50.8817 79.9666 51.0741 79.864 51.2479C79.7614 51.4218 79.6256 51.5737 79.4643 51.6951C79.303 51.8165 79.1194 51.9049 78.924 51.9553Z" fill="#F2F2F2"/>
<path d="M86.3593 55.3957L44.875 66.0937C44.6795 66.1441 44.476 66.1555 44.2761 66.1273C44.0762 66.0991 43.8839 66.0317 43.71 65.9292C43.5362 65.8266 43.3842 65.6908 43.2628 65.5295C43.1415 65.3682 43.0531 65.1846 43.0027 64.9891C42.9523 64.7936 42.9408 64.5902 42.9691 64.3903C42.9973 64.1904 43.0646 63.998 43.1672 63.8242C43.2698 63.6503 43.4056 63.4984 43.5669 63.377C43.7282 63.2556 43.9118 63.1672 44.1073 63.1168L85.5916 52.4188C85.9863 52.317 86.4054 52.3762 86.7565 52.5834C87.1076 52.7905 87.3621 53.1287 87.4639 53.5234C87.5657 53.9182 87.5065 54.3372 87.2993 54.6883C87.0922 55.0395 86.754 55.2939 86.3593 55.3957Z" fill="#F2F2F2"/>
<path d="M84.7296 74.468L49.3851 83.5826C48.9905 83.6841 48.5717 83.6247 48.2208 83.4176C47.8699 83.2104 47.6156 82.8723 47.5139 82.4777C47.4121 82.0832 47.4712 81.6643 47.6781 81.3133C47.8851 80.9622 48.2229 80.7077 48.6174 80.6057L83.9619 71.4911C84.3566 71.3893 84.7757 71.4485 85.1268 71.6556C85.4779 71.8628 85.7324 72.2009 85.8342 72.5957C85.936 72.9905 85.8768 73.4095 85.6696 73.7606C85.4625 74.1117 85.1243 74.3662 84.7296 74.468Z" fill="#F2F2F2"/>
<path d="M92.1649 77.9084L50.6806 88.6064C50.485 88.657 50.2814 88.6686 50.0814 88.6405C49.8814 88.6124 49.6889 88.5451 49.5149 88.4426C49.3409 88.34 49.1888 88.2042 49.0674 88.0428C48.9459 87.8814 48.8574 87.6977 48.807 87.5021C48.7565 87.3066 48.7451 87.103 48.7734 86.903C48.8017 86.703 48.8691 86.5105 48.9718 86.3366C49.0745 86.1627 49.2105 86.0108 49.372 85.8894C49.5335 85.7681 49.7173 85.6798 49.9129 85.6295L91.3972 74.9315C91.792 74.8297 92.211 74.8889 92.5621 75.0961C92.9133 75.3032 93.1677 75.6414 93.2695 76.0361C93.3713 76.4309 93.3121 76.8499 93.105 77.201C92.8978 77.5522 92.5597 77.8066 92.1649 77.9084Z" fill="#F2F2F2"/>
<path d="M31.7401 47.9029L19.232 51.1285C19.0427 51.1771 18.8419 51.1486 18.6736 51.0493C18.5053 50.95 18.3832 50.788 18.3342 50.5988L15.463 39.4649C15.4144 39.2756 15.4429 39.0748 15.5422 38.9065C15.6415 38.7382 15.8035 38.6161 15.9927 38.5671L28.5008 35.3415C28.69 35.2929 28.8909 35.3214 29.0592 35.4207C29.2275 35.52 29.3495 35.682 29.3985 35.8712L32.2697 47.0051C32.3183 47.1944 32.2899 47.3952 32.1906 47.5635C32.0913 47.7318 31.9293 47.8539 31.7401 47.9029Z" fill="#E6E6E6"/>
<path d="M37.5457 70.4156L25.0376 73.6412C24.8483 73.6897 24.6475 73.6613 24.4792 73.562C24.3109 73.4627 24.1888 73.3007 24.1398 73.1115L21.2686 61.9776C21.22 61.7883 21.2485 61.5875 21.3478 61.4192C21.4471 61.2509 21.6091 61.1288 21.7983 61.0798L34.3063 57.8542C34.4956 57.8056 34.6964 57.8341 34.8648 57.9334C35.0331 58.0327 35.1551 58.1947 35.2041 58.3839L38.0753 69.5178C38.1239 69.7071 38.0954 69.9079 37.9961 70.0762C37.8968 70.2445 37.7348 70.3666 37.5457 70.4156Z" fill="#E6E6E6"/>
<path d="M43.3513 92.9283L30.8432 96.1539C30.654 96.2024 30.4531 96.174 30.2848 96.0747C30.1165 95.9754 29.9945 95.8134 29.9455 95.6242L27.0742 84.4903C27.0257 84.301 27.0541 84.1002 27.1534 83.9319C27.2527 83.7636 27.4147 83.6415 27.6039 83.5925L40.112 80.3669C40.3013 80.3183 40.5021 80.3468 40.6704 80.4461C40.8387 80.5454 40.9607 80.7074 41.0097 80.8966L43.881 92.0305C43.9296 92.2198 43.9011 92.4206 43.8018 92.5889C43.7025 92.7572 43.5405 92.8793 43.3513 92.9283Z" fill="#E6E6E6"/>
<path d="M125.567 21.0967H53.3871C50.9398 21.0994 48.5936 22.0728 46.8631 23.8033C45.1326 25.5338 44.1592 27.88 44.1565 30.3273V115.081C44.1592 117.529 45.1326 119.875 46.8631 121.605C48.5936 123.336 50.9398 124.309 53.3871 124.312H125.567C128.014 124.309 130.36 123.336 132.091 121.605C133.821 119.875 134.795 117.529 134.797 115.081V30.3273C134.795 27.88 133.821 25.5338 132.091 23.8033C130.36 22.0728 128.014 21.0994 125.567 21.0967Z" fill="#E6E6E6"/>
<path d="M125.567 23.7539H53.3871C51.6443 23.7559 49.9735 24.449 48.7412 25.6814C47.5088 26.9137 46.8157 28.5845 46.8137 30.3273V115.081C46.8157 116.824 47.5088 118.495 48.7412 119.727C49.9735 120.96 51.6443 121.653 53.3871 121.655H125.567C127.31 121.653 128.98 120.96 130.213 119.727C131.445 118.495 132.138 116.824 132.14 115.081V30.3273C132.138 28.5845 131.445 26.9137 130.213 25.6814C128.98 24.4491 127.31 23.7559 125.567 23.7539Z" fill="white"/>
<path d="M133.15 134.624C142.456 134.624 150 127.08 150 117.774C150 108.468 142.456 100.924 133.15 100.924C123.844 100.924 116.3 108.468 116.3 117.774C116.3 127.08 123.844 134.624 133.15 134.624Z" fill="#227C9D"/>
<path d="M141.209 115.576H135.348V109.715C135.348 109.133 135.116 108.573 134.704 108.161C134.292 107.749 133.733 107.518 133.15 107.518C132.567 107.518 132.008 107.749 131.596 108.161C131.184 108.573 130.952 109.133 130.952 109.715V115.576H125.091C124.508 115.576 123.949 115.808 123.537 116.22C123.125 116.632 122.893 117.191 122.893 117.774C122.893 118.357 123.125 118.916 123.537 119.328C123.949 119.74 124.508 119.972 125.091 119.972H130.952V125.833C130.952 126.416 131.184 126.975 131.596 127.387C132.008 127.799 132.567 128.031 133.15 128.031C133.733 128.031 134.292 127.799 134.704 127.387C135.116 126.975 135.348 126.416 135.348 125.833V119.972H141.209C141.791 119.972 142.351 119.74 142.763 119.328C143.175 118.916 143.406 118.357 143.406 117.774C143.406 117.191 143.175 116.632 142.763 116.22C142.351 115.808 141.791 115.576 141.209 115.576Z" fill="white"/>
<path d="M114.704 70.3262H78.203C78.001 70.3265 77.801 70.2869 77.6143 70.2097C77.4276 70.1326 77.2579 70.0194 77.115 69.8766C76.9721 69.7339 76.8587 69.5643 76.7813 69.3777C76.704 69.1911 76.6642 68.9911 76.6642 68.7891C76.6642 68.5871 76.704 68.3871 76.7813 68.2005C76.8587 68.0139 76.9721 67.8443 77.115 67.7016C77.2579 67.5588 77.4276 67.4456 77.6143 67.3685C77.801 67.2913 78.001 67.2517 78.203 67.252H114.704C115.111 67.2524 115.502 67.4146 115.79 67.7028C116.078 67.991 116.239 68.3817 116.239 68.7891C116.239 69.1965 116.078 69.5872 115.79 69.8754C115.502 70.1636 115.111 70.3258 114.704 70.3262Z" fill="#E6E6E6"/>
<path d="M121.045 75.5147H78.203C78.001 75.515 77.801 75.4754 77.6143 75.3982C77.4276 75.3211 77.2579 75.2079 77.115 75.0651C76.9721 74.9224 76.8587 74.7528 76.7813 74.5662C76.704 74.3796 76.6642 74.1796 76.6642 73.9776C76.6642 73.7756 76.704 73.5755 76.7813 73.3889C76.8587 73.2023 76.9721 73.0328 77.115 72.89C77.2579 72.7473 77.4276 72.6341 77.6143 72.5569C77.801 72.4798 78.001 72.4402 78.203 72.4404H121.045C121.452 72.4404 121.843 72.6024 122.131 72.8906C122.42 73.1789 122.582 73.5699 122.582 73.9776C122.582 74.3853 122.42 74.7762 122.131 75.0645C121.843 75.3528 121.452 75.5147 121.045 75.5147Z" fill="#E6E6E6"/>
<path d="M114.704 93.5753H78.203C78.001 93.5755 77.801 93.5359 77.6143 93.4588C77.4276 93.3816 77.2579 93.2684 77.115 93.1257C76.9721 92.9829 76.8587 92.8134 76.7813 92.6268C76.704 92.4402 76.6642 92.2401 76.6642 92.0381C76.6642 91.8361 76.704 91.6361 76.7813 91.4495C76.8587 91.2629 76.9721 91.0934 77.115 90.9506C77.2579 90.8078 77.4276 90.6946 77.6143 90.6175C77.801 90.5403 78.001 90.5008 78.203 90.501H114.704C115.112 90.501 115.502 90.6629 115.791 90.9512C116.079 91.2395 116.241 91.6304 116.241 92.0381C116.241 92.4458 116.079 92.8368 115.791 93.1251C115.502 93.4133 115.112 93.5753 114.704 93.5753Z" fill="#E6E6E6"/>
<path d="M121.045 98.7638H78.203C78.001 98.764 77.801 98.7244 77.6143 98.6472C77.4276 98.5701 77.2579 98.4569 77.115 98.3141C76.9721 98.1714 76.8587 98.0018 76.7813 97.8152C76.704 97.6286 76.6642 97.4286 76.6642 97.2266C76.6642 97.0246 76.704 96.8246 76.7813 96.638C76.8587 96.4514 76.9721 96.2818 77.115 96.1391C77.2579 95.9963 77.4276 95.8831 77.6143 95.806C77.801 95.7288 78.001 95.6892 78.203 95.6895H121.045C121.247 95.6892 121.447 95.7288 121.633 95.806C121.82 95.8831 121.99 95.9963 122.133 96.1391C122.276 96.2818 122.389 96.4514 122.466 96.638C122.544 96.8246 122.583 97.0246 122.583 97.2266C122.583 97.4286 122.544 97.6286 122.466 97.8152C122.389 98.0018 122.276 98.1714 122.133 98.3141C121.99 98.4569 121.82 98.5701 121.633 98.6472C121.447 98.7244 121.247 98.764 121.045 98.7638Z" fill="#E6E6E6"/>
<path d="M70.0265 77.8698H57.1092C56.9138 77.8696 56.7265 77.7918 56.5883 77.6537C56.4501 77.5155 56.3724 77.3281 56.3722 77.1327V65.6345C56.3724 65.4391 56.4501 65.2518 56.5883 65.1136C56.7265 64.9754 56.9138 64.8977 57.1092 64.8975H70.0265C70.2219 64.8977 70.4093 64.9754 70.5475 65.1136C70.6856 65.2518 70.7634 65.4391 70.7636 65.6345V77.1327C70.7634 77.3281 70.6856 77.5155 70.5475 77.6537C70.4093 77.7918 70.2219 77.8696 70.0265 77.8698Z" fill="#E6E6E6"/>
<path d="M70.0265 101.119H57.1092C56.9138 101.119 56.7265 101.041 56.5883 100.903C56.4501 100.765 56.3724 100.577 56.3722 100.382V88.8835C56.3724 88.6881 56.4501 88.5008 56.5883 88.3626C56.7265 88.2244 56.9138 88.1467 57.1092 88.1465H70.0265C70.2219 88.1467 70.4093 88.2244 70.5475 88.3626C70.6856 88.5008 70.7634 88.6881 70.7636 88.8835V100.382C70.7634 100.577 70.6856 100.765 70.5475 100.903C70.4093 101.041 70.2219 101.119 70.0265 101.119Z" fill="#E6E6E6"/>
<path d="M114.744 44.4454H87.8337C87.426 44.4454 87.035 44.2834 86.7468 43.9952C86.4585 43.7069 86.2965 43.3159 86.2965 42.9082C86.2965 42.5006 86.4585 42.1096 86.7468 41.8213C87.035 41.533 87.426 41.3711 87.8337 41.3711H114.744C115.152 41.3711 115.543 41.533 115.831 41.8213C116.119 42.1096 116.281 42.5006 116.281 42.9082C116.281 43.3159 116.119 43.7069 115.831 43.9952C115.543 44.2834 115.152 44.4454 114.744 44.4454Z" fill="#CCCCCC"/>
<path d="M121.085 49.6329H87.8337C87.6318 49.6329 87.4319 49.5931 87.2454 49.5159C87.059 49.4386 86.8895 49.3254 86.7468 49.1827C86.604 49.0399 86.4908 48.8705 86.4135 48.684C86.3363 48.4975 86.2965 48.2976 86.2965 48.0957C86.2965 47.8939 86.3363 47.694 86.4135 47.5075C86.4908 47.321 86.604 47.1515 86.7468 47.0088C86.8895 46.8661 87.059 46.7528 87.2454 46.6756C87.4319 46.5983 87.6318 46.5586 87.8337 46.5586H121.085C121.493 46.5586 121.884 46.7205 122.172 47.0088C122.46 47.2971 122.622 47.6881 122.622 48.0957C122.622 48.5034 122.46 48.8944 122.172 49.1827C121.884 49.4709 121.493 49.6329 121.085 49.6329Z" fill="#CCCCCC"/>
<path d="M81.8779 55.9203H57.0687C56.8733 55.9201 56.686 55.8423 56.5478 55.7042C56.4096 55.566 56.3319 55.3786 56.3317 55.1832V35.821C56.3319 35.6256 56.4096 35.4383 56.5478 35.3001C56.686 35.1619 56.8733 35.0842 57.0687 35.084H81.8779C82.0733 35.0842 82.2607 35.1619 82.3989 35.3001C82.5371 35.4383 82.6148 35.6256 82.615 35.821V55.1832C82.6148 55.3786 82.5371 55.566 82.3989 55.7042C82.2607 55.8423 82.0733 55.9201 81.8779 55.9203Z" fill="#227C9D"/>
</g>
<defs>
<clipPath id="clip0_1084_3205">
<rect width="150" height="134.624" fill="white"/>
</clipPath>
</defs>
</svg>
