<svg xmlns:xlink="http://www.w3.org/1999/xlink" preserveAspectRatio="xMidYMid meet" data-bbox="18 59 164 82" viewBox="18 59 164 82" height="200" width="200" xmlns="http://www.w3.org/2000/svg" data-type="color" role="presentation" aria-hidden="true" aria-labelledby="svgcid-1mkv4f-o1emwm"><title id="svgcid-1mkv4f-o1emwm"></title>
<g>
<path fill="#FFFFFF" d="M182 86.334l-80.389-11.199L18 86.334v27.332l80.39 17.177L182 113.666V86.334z" data-color="1"></path>
<path fill="#128807" d="M182 113.666V141H18v-27.334h164z" data-color="2"></path>
<path fill="#FF9933" d="M182 59v27.334H18V59h164z" data-color="3"></path>
<path d="M100.902 101.232c.006-.008.015-.015.019-.021l.015-.019.025-.029.021-.031a.125.125 0 0 0 .015-.019c.006-.006.01-.015.017-.023a.48.48 0 0 1 .019-.029l.015-.019 1.488 1.123 5.173 2.604-4.842-3.174-1.718-.729c.004-.006.006-.013.01-.021.004-.01.008-.021.015-.031l.013-.025.008-.023c.006-.01.01-.023.017-.034a.301.301 0 0 1 .013-.036l.008-.021.01-.027a.268.268 0 0 1 .013-.034l.006-.023 1.731.7 5.668 1.177-5.498-1.814-1.848-.258c.002-.008.004-.015.004-.023l.006-.036.006-.027.002-.023.006-.038.004-.038c.002-.008.002-.015.002-.023.002-.01.002-.019.002-.029a.188.188 0 0 0 .004-.036c0-.006 0-.015.002-.023l1.852.23 5.779-.331-5.779-.329-1.852.228c-.002-.008-.002-.017-.002-.023a.198.198 0 0 0-.004-.036c0-.01 0-.019-.002-.029 0-.008 0-.015-.002-.023l-.004-.038-.006-.038-.002-.023-.006-.027-.006-.036c0-.008-.002-.015-.004-.023l1.848-.258 5.498-1.814-5.668 1.177-1.731.7-.006-.023-.013-.034-.01-.027-.008-.021a.478.478 0 0 1-.013-.036c-.006-.01-.01-.023-.017-.034l-.008-.023-.013-.025c-.006-.01-.01-.021-.015-.031-.004-.008-.006-.015-.01-.021l1.718-.729 4.842-3.174-5.173 2.604-1.488 1.123c-.004-.006-.008-.013-.015-.019l-.019-.029c-.006-.008-.011-.017-.017-.023-.004-.006-.008-.013-.015-.019l-.021-.031-.025-.029c-.004-.006-.008-.013-.015-.019-.004-.006-.012-.013-.019-.021l-.021-.027c-.006-.006-.01-.013-.017-.017l1.471-1.148 3.855-4.32-4.32 3.853-1.148 1.471-.017-.015-.027-.023c-.009-.006-.015-.013-.023-.019l-.017-.015c-.01-.006-.021-.015-.031-.023-.008-.008-.019-.015-.029-.023l-.019-.013c-.008-.006-.017-.01-.023-.017-.01-.006-.021-.015-.029-.021-.006-.004-.015-.008-.021-.013l1.125-1.49 2.604-5.171-3.176 4.842-.727 1.718a.1.1 0 0 0-.021-.01c-.01-.006-.021-.01-.031-.015a.136.136 0 0 1-.027-.013c-.006-.004-.014-.006-.021-.01l-.035-.015c-.011-.004-.023-.008-.036-.015l-.021-.008-.027-.008-.034-.013c-.006-.002-.015-.004-.021-.008l.7-1.729 1.178-5.67-1.815 5.498-.258 1.85-.023-.006-.036-.006c-.01 0-.019-.002-.029-.004l-.021-.004c-.013-.002-.025-.004-.038-.004a.271.271 0 0 0-.04-.004l-.021-.004c-.01 0-.021 0-.029-.002l-.036-.002c-.008-.002-.015-.002-.023-.002l.228-1.852-.329-5.781-.331 5.781.228 1.852c-.006 0-.015 0-.023.002l-.036.002c-.007.005-.018.005-.026.005l-.023.004c-.013 0-.025.002-.038.004-.013 0-.025.002-.038.004l-.023.004c-.01.002-.019.004-.029.004l-.034.006-.023.006-.26-1.85-1.814-5.498 1.178 5.67.702 1.729a.127.127 0 0 1-.023.008l-.034.013-.027.008c-.006.004-.015.006-.021.008l-.036.015-.036.015c-.006.004-.015.006-.021.01l-.025.013c-.01.004-.023.008-.034.015l-.021.01-.727-1.718-3.176-4.842 2.604 5.171 1.125 1.49-.019.013c-.01.006-.021.015-.029.021-.008.006-.017.01-.025.017a.192.192 0 0 0-.017.013l-.031.023-.029.023-.019.015-.021.019-.027.023-.019.015-1.146-1.471-4.322-3.854 3.855 4.32 1.471 1.148a.138.138 0 0 0-.015.017c-.008.008-.014.019-.023.027a.129.129 0 0 1-.019.021l-.014.019a.194.194 0 0 0-.023.029c-.008.01-.017.021-.023.031l-.015.019-.015.023a.264.264 0 0 0-.021.029l-.013.019-1.49-1.123-5.171-2.604 4.84 3.174 1.718.729-.01.021c-.004.01-.008.021-.015.031l-.013.025a.105.105 0 0 1-.008.023l-.014.034a.47.47 0 0 0-.015.036l-.008.021-.008.027c-.004.013-.01.023-.013.034a.105.105 0 0 0-.008.023l-1.728-.7-5.67-1.177 5.498 1.814 1.848.258-.004.023-.006.036-.006.027-.002.023-.006.038-.004.038-.002.023c-.002.01-.002.019-.002.029l-.004.036v.023l-1.852-.228-5.783.328 5.781.331 1.852-.23v.023l.004.036c0 .01 0 .019.002.029l.002.023.004.038.006.038.002.023.006.027.006.036.004.023-1.848.258-5.498 1.814 5.67-1.177 1.728-.7a.105.105 0 0 0 .008.023c.002.01.008.021.013.034l.008.027.008.021c.004.01.008.023.015.036l.014.034a.105.105 0 0 1 .008.023l.013.025c.006.01.01.021.015.031l.01.021-1.718.729-4.84 3.174 5.171-2.604 1.49-1.123.013.019c.006.01.013.019.021.029a.13.13 0 0 0 .015.023l.015.019c.006.01.015.021.023.031.006.01.015.019.023.029l.014.019.019.021c.009.008.015.019.023.027.004.006.01.013.015.017l-1.471 1.148-3.855 4.32 4.323-3.853 1.146-1.471c.006.004.013.008.019.015l.027.023.021.019c.006.004.013.008.019.015l.029.023.031.023.017.013c.008.006.017.01.025.017.008.006.019.015.029.021l.019.013-1.125 1.49-2.604 5.171 3.176-4.842.727-1.718.021.01c.01.006.023.01.034.015l.025.013c.006.004.015.006.021.01.013.004.023.01.036.015s.023.008.036.015c.006.002.014.004.021.008l.027.008.034.013a.105.105 0 0 1 .023.008l-.702 1.729-1.178 5.67 1.814-5.498.26-1.85.023.006.034.006c.01 0 .019.002.029.004l.023.004.038.006c.013 0 .025.002.038.004.008 0 .015 0 .023.002.008 0 .019 0 .027.002l.036.002a.098.098 0 0 0 .023.002l-.228 1.852.331 5.781.329-5.781-.228-1.852c.008 0 .014 0 .023-.002l.036-.002c.008-.002.019-.002.029-.002.006-.002.015-.002.021-.002a.271.271 0 0 1 .04-.004l.038-.006.023-.004a.11.11 0 0 1 .027-.004l.036-.006a.247.247 0 0 1 .023-.006l.258 1.85 1.815 5.498-1.178-5.67-.7-1.729c.006-.004.015-.006.021-.008a.268.268 0 0 0 .034-.013l.027-.008.021-.008.036-.015a.283.283 0 0 0 .035-.015c.006-.004.015-.006.021-.01l.027-.013c.01-.004.021-.008.031-.015a.1.1 0 0 0 .021-.01l.727 1.718 3.176 4.842-2.604-5.171-1.125-1.49c.006-.004.015-.008.021-.013l.027-.021c.008-.006.017-.01.025-.017l.019-.013c.01-.008.021-.015.029-.023.01-.008.021-.017.031-.023a.122.122 0 0 1 .017-.015l.023-.019.027-.023a.122.122 0 0 1 .017-.015l1.148 1.471 4.32 3.853-3.855-4.32-1.471-1.148c.006-.004.01-.01.017-.017l.021-.028z" fill="#000088" data-color="4"></path>
<path d="M99.446 89.03c-6.059 0-10.973 4.911-10.973 10.97s4.914 10.97 10.973 10.97c6.059 0 10.971-4.911 10.971-10.97s-4.911-10.97-10.971-10.97zm6.202 18.303a.489.489 0 0 0-.635-.134.489.489 0 0 0-.138.723 9.508 9.508 0 0 1-1.335.767.487.487 0 0 0-.924.304c.006.023.015.046.023.067-.48.17-.978.302-1.49.394a.486.486 0 0 0-.97.054c0 .023.004.046.008.069a9.977 9.977 0 0 1-1.54-.007.489.489 0 1 0-.965-.128 9.737 9.737 0 0 1-1.488-.402.487.487 0 0 0-.867-.44.632.632 0 0 0-.027.065 9.66 9.66 0 0 1-1.333-.777.487.487 0 0 0-.725-.645c-.017.015-.029.034-.044.052a9.756 9.756 0 0 1-1.086-1.094.487.487 0 0 0-.534-.813.481.481 0 0 0-.056.042c-.289-.423-.545-.87-.767-1.335a.487.487 0 0 0-.304-.926c-.023.006-.044.015-.065.023a9.25 9.25 0 0 1-.394-1.488.487.487 0 1 0-.123-.964 10.06 10.06 0 0 1 .004-1.54.484.484 0 0 0 .543-.356.486.486 0 0 0-.413-.61 9.43 9.43 0 0 1 .402-1.486.488.488 0 0 0 .44-.867c-.021-.013-.044-.021-.065-.029.222-.467.484-.911.775-1.333a.486.486 0 0 0 .647-.725c-.017-.017-.036-.029-.052-.042.335-.392.7-.754 1.094-1.087a.486.486 0 1 0 .771-.589 9.554 9.554 0 0 1 1.334-.767.488.488 0 1 0 .901-.371c.48-.17.978-.302 1.49-.394a.486.486 0 0 0 .97-.054c0-.023-.004-.046-.006-.069a9.967 9.967 0 0 1 1.538.007.489.489 0 1 0 .966.128c.511.096 1.008.23 1.488.402a.487.487 0 1 0 .896.375 9.57 9.57 0 0 1 1.33.777.486.486 0 1 0 .769.593c.39.335.754.702 1.087 1.094a.487.487 0 0 0 .532.813c.021-.013.038-.027.057-.042a9.8 9.8 0 0 1 .767 1.335.489.489 0 0 0 .304.926c.023-.006.046-.015.067-.023.168.48.302.976.394 1.488a.487.487 0 1 0 .121.964 9.586 9.586 0 0 1-.004 1.54.487.487 0 1 0-.13.966 9.43 9.43 0 0 1-.402 1.486.488.488 0 0 0-.438.867.354.354 0 0 0 .063.029 9.45 9.45 0 0 1-.775 1.333.487.487 0 0 0-.647.725c.017.017.036.029.052.042a9.412 9.412 0 0 1-1.091 1.087z" fill="#000088" data-color="4"></path>
</g>
</svg>