<svg xmlns:xlink="http://www.w3.org/1999/xlink" preserveAspectRatio="xMidYMid meet" data-bbox="37 36 126.227 128" xmlns="http://www.w3.org/2000/svg" viewBox="37 36 126.227 128" height="200" width="200" data-type="shape" role="presentation" aria-hidden="true">
<g stroke="#FFFFFF" fill="#07081F" stroke-width="0px" stroke-opacity="0">
<path d="M65.113 164H135V36H65.113v128zm5.823-23.966l58.178-.034V42l-58.178.034v98zm.024 17.965V144h58.154v13.999H70.96zm24.737-71.497c-1.034-.312-1.95-.74-2.75-1.287a6.253 6.253 0 0 1-1.93-2.106c-.488-.857-.73-1.969-.73-3.334 0-1.521.223-2.837.672-3.949.447-1.111 1.072-2.018 1.871-2.72a7.679 7.679 0 0 1 2.75-1.55 10.77 10.77 0 0 1 3.305-.497v16.32a67.218 67.218 0 0 1-3.188-.877zm5.528 5.031v16.788c1.24 0 2.442-.155 3.605-.466a8.754 8.754 0 0 0 3.111-1.516 7.969 7.969 0 0 0 2.21-2.652c.561-1.068.843-2.361.843-3.877 0-1.398-.3-2.565-.9-3.497a7.652 7.652 0 0 0-2.298-2.302 13.844 13.844 0 0 0-3.14-1.488 42.225 42.225 0 0 0-3.43-.99zm-9.447 13.53c1.657 1.823 4.026 2.909 7.107 3.258V91.064a42.378 42.378 0 0 1-4.709-1.286c-1.502-.506-2.808-1.19-3.919-2.047-1.112-.858-1.999-1.95-2.662-3.276-.664-1.326-.994-3.022-.994-5.09 0-1.755.322-3.334.965-4.738a10.813 10.813 0 0 1 2.632-3.598c1.112-.994 2.408-1.755 3.89-2.281 1.482-.526 3.08-.789 4.797-.789v-4.563h2.34v4.563c1.67 0 3.26.302 4.774.906a12.149 12.149 0 0 1 3.988 2.574c1.145 1.111 2.038 2.448 2.678 4.007.64 1.56.941 3.296.903 5.206h-3.685c-.04-2.924-.853-5.254-2.44-6.99-1.59-1.735-3.662-2.603-6.218-2.603v16.847c1.67.351 3.31.781 4.921 1.287 1.611.507 3.048 1.209 4.31 2.106a10.458 10.458 0 0 1 3.058 3.392c.777 1.366 1.165 3.062 1.165 5.09 0 1.911-.379 3.597-1.136 5.06a11.183 11.183 0 0 1-3.028 3.685 12.929 12.929 0 0 1-4.31 2.223 17.115 17.115 0 0 1-4.98.731v4.972h-2.34v-5.031c-4.563-.429-7.888-1.784-9.974-4.065-2.087-2.281-3.208-5.645-3.363-10.091h3.685c.038 3.376.886 5.975 2.545 7.798zM96.114 153v-4H104v4h-7.886zM52.39 84.015l2.688 2.687c-7.333 7.333-7.333 19.263 0 26.596l-2.688 2.687c-8.813-8.814-8.813-23.156 0-31.97zm-2.698-5.522c-11.858 11.86-11.858 31.155 0 43.014l-2.687 2.686c-13.34-13.34-13.34-35.046 0-48.387l2.687 2.687zm98.145 5.522c8.813 8.814 8.813 23.156 0 31.97l-2.687-2.687c7.332-7.333 7.332-19.263 0-26.596l2.687-2.687zm5.385-8.208c13.34 13.34 13.34 35.046 0 48.387l-2.687-2.687c11.858-11.86 11.858-31.155 0-43.013l2.687-2.687z" fill-rule="evenodd" stroke="#FFFFFF" fill="#07081F" stroke-width="0px" stroke-opacity="0"></path>
</g>
</svg>