<svg width="150" height="132" viewBox="0 0 150 132" fill="none" xmlns="http://www.w3.org/2000/svg">
<g clip-path="url(#clip0_1084_4462)">
<path d="M150 31.2542H149.278V11.4577C149.278 8.41889 148.071 5.50459 145.922 3.35587C143.774 1.20714 140.859 1.49459e-09 137.821 1.49458e-09H95.878C94.3734 -2.43004e-05 92.8834 0.296312 91.4933 0.872091C90.1032 1.44787 88.8401 2.29181 87.7762 3.35574C86.7122 4.41966 85.8682 5.68273 85.2924 7.07283C84.7166 8.46292 84.4202 9.95282 84.4202 11.4575V120.063C84.4202 123.102 85.6273 126.016 87.776 128.165C89.9248 130.314 92.8391 131.521 95.8778 131.521H137.82C140.859 131.521 143.773 130.314 145.922 128.165C148.071 126.016 149.278 123.102 149.278 120.063V45.3458H149.999L150 31.2542Z" fill="#3F3D56"/>
<path d="M146.942 10.6904V120.83C146.941 123.134 146.026 125.344 144.397 126.973C142.768 128.602 140.559 129.518 138.255 129.519H95.4516C93.1468 129.519 90.9362 128.604 89.306 126.975C87.6759 125.345 86.7597 123.135 86.759 120.83V10.6904C86.7597 8.38568 87.6758 6.17557 89.3059 4.5462C90.936 2.91684 93.1465 2.00166 95.4512 2.00195H100.643C100.389 2.62892 100.292 3.3089 100.361 3.98215C100.43 4.6554 100.664 5.3013 101.042 5.86306C101.419 6.42483 101.929 6.88528 102.526 7.20393C103.123 7.52257 103.789 7.68967 104.466 7.69053H128.869C129.546 7.68967 130.212 7.52257 130.809 7.20393C131.406 6.88528 131.916 6.42483 132.293 5.86306C132.671 5.3013 132.904 4.6554 132.974 3.98215C133.043 3.3089 132.946 2.62892 132.691 2.00195H138.253C140.557 2.00235 142.766 2.91763 144.396 4.5466C146.025 6.17556 146.941 8.38486 146.942 10.6888V10.6904Z" fill="white"/>
<path d="M117.309 54.7534C112.436 54.7552 107.762 52.8211 104.314 49.3766C100.867 45.9321 98.9288 41.2593 98.9265 36.386V36.3697C98.9265 36.3312 98.9265 36.2907 98.9287 36.2522C98.9843 26.1852 107.231 17.9873 117.309 17.9873C122.185 17.987 126.861 19.9235 130.308 23.3708C133.756 26.818 135.693 31.4936 135.693 36.369C135.693 41.2445 133.757 45.9203 130.31 49.3679C126.862 52.8155 122.187 54.7526 117.311 54.7528H117.309V54.7534ZM117.309 18.3741C112.558 18.3847 108.003 20.2697 104.634 23.6196C101.265 26.9695 99.3537 31.5136 99.3159 36.2646C99.3138 36.3057 99.3138 36.3386 99.3138 36.3699C99.3134 39.9296 100.369 43.4094 102.346 46.3694C104.323 49.3294 107.134 51.6366 110.422 52.9993C113.711 54.3619 117.33 54.7188 120.821 54.0247C124.312 53.3307 127.519 51.617 130.037 49.1002C132.554 46.5834 134.269 43.3767 134.964 39.8855C135.659 36.3943 135.303 32.7755 133.941 29.4866C132.579 26.1977 130.272 23.3865 127.313 21.4085C124.353 19.4305 120.874 18.3745 117.314 18.3741H117.309Z" fill="#E6E6E6"/>
<path d="M136.318 74.0808H98.2829C98.0962 74.0806 97.9172 74.0063 97.7851 73.8743C97.6531 73.7422 97.5788 73.5632 97.5786 73.3764V63.9416C97.5789 63.7549 97.6531 63.5759 97.7852 63.4439C97.9172 63.3118 98.0962 63.2375 98.2829 63.2373H136.318C136.505 63.2375 136.684 63.3118 136.816 63.4439C136.948 63.5759 137.023 63.7549 137.023 63.9416V73.3766C137.023 73.5634 136.948 73.7424 136.816 73.8744C136.684 74.0064 136.505 74.0807 136.318 74.0809V74.0808ZM98.2829 63.519C98.1709 63.5191 98.0634 63.5636 97.9842 63.6429C97.9049 63.7221 97.8604 63.8296 97.8603 63.9416V73.3766C97.8604 73.4887 97.9049 73.5961 97.9842 73.6754C98.0634 73.7546 98.1709 73.7992 98.2829 73.7993H136.318C136.431 73.7992 136.538 73.7546 136.617 73.6754C136.696 73.5961 136.741 73.4887 136.741 73.3766V63.9416C136.741 63.8296 136.696 63.7221 136.617 63.6429C136.538 63.5636 136.431 63.5191 136.318 63.519H98.2829Z" fill="#E6E6E6"/>
<path d="M110.046 66.6865C109.915 66.6865 109.789 66.7385 109.697 66.8309C109.604 66.9234 109.552 67.0488 109.552 67.1796C109.552 67.3104 109.604 67.4358 109.697 67.5283C109.789 67.6207 109.915 67.6727 110.046 67.6727H133.289C133.354 67.6752 133.419 67.6649 133.479 67.6424C133.54 67.6199 133.596 67.5857 133.643 67.5417C133.691 67.4977 133.729 67.4447 133.756 67.3859C133.783 67.3271 133.799 67.2635 133.801 67.1988C133.804 67.134 133.793 67.0695 133.771 67.0087C133.748 66.948 133.714 66.8923 133.67 66.8448C133.626 66.7972 133.573 66.7589 133.514 66.7318C133.455 66.7047 133.392 66.6895 133.327 66.6871C133.32 66.6868 133.313 66.6867 133.305 66.6867H110.046V66.6865Z" fill="#E6E6E6"/>
<path d="M110.046 69.6445C109.915 69.6445 109.789 69.6965 109.697 69.7889C109.604 69.8814 109.552 70.0068 109.552 70.1376C109.552 70.2684 109.604 70.3938 109.697 70.4863C109.789 70.5787 109.915 70.6307 110.046 70.6307H133.289C133.354 70.6332 133.419 70.6229 133.479 70.6004C133.54 70.5779 133.596 70.5437 133.643 70.4997C133.691 70.4557 133.729 70.4028 133.756 70.3439C133.783 70.2851 133.799 70.2215 133.801 70.1568C133.804 70.092 133.793 70.0275 133.771 69.9667C133.748 69.906 133.714 69.8503 133.67 69.8028C133.626 69.7552 133.573 69.7169 133.514 69.6898C133.455 69.6627 133.392 69.6475 133.327 69.6451C133.32 69.6448 133.313 69.6447 133.305 69.6447H110.046V69.6445Z" fill="#E6E6E6"/>
<path d="M136.318 89.8581H98.2829C98.0962 89.8579 97.9172 89.7836 97.7851 89.6516C97.6531 89.5196 97.5788 89.3405 97.5786 89.1538V79.719C97.5789 79.5323 97.6531 79.3532 97.7852 79.2212C97.9172 79.0892 98.0962 79.0149 98.2829 79.0146H136.318C136.505 79.0149 136.684 79.0892 136.816 79.2212C136.948 79.3532 137.023 79.5323 137.023 79.719V89.154C137.022 89.3407 136.948 89.5196 136.816 89.6516C136.684 89.7836 136.505 89.8579 136.318 89.8581ZM98.2829 79.2963C98.1709 79.2964 98.0634 79.341 97.9842 79.4202C97.9049 79.4995 97.8604 79.6069 97.8603 79.719V89.154C97.8604 89.266 97.9049 89.3735 97.9842 89.4527C98.0634 89.532 98.1709 89.5765 98.2829 89.5766H136.318C136.431 89.5765 136.538 89.532 136.617 89.4527C136.696 89.3735 136.741 89.266 136.741 89.154V79.719C136.741 79.6069 136.696 79.4995 136.617 79.4202C136.538 79.341 136.431 79.2964 136.318 79.2963H98.2829Z" fill="#E6E6E6"/>
<path d="M110.046 82.4639C109.915 82.4639 109.789 82.5158 109.697 82.6083C109.604 82.7008 109.552 82.8262 109.552 82.9569C109.552 83.0877 109.604 83.2131 109.697 83.3056C109.789 83.3981 109.915 83.45 110.046 83.45H133.289C133.418 83.4493 133.542 83.3981 133.633 83.3074C133.725 83.2168 133.778 83.0938 133.78 82.9649C133.782 82.836 133.733 82.7114 133.645 82.6178C133.556 82.5242 133.434 82.469 133.305 82.464H110.046V82.4639Z" fill="#E6E6E6"/>
<path d="M110.046 85.4229C109.915 85.4229 109.789 85.4748 109.697 85.5673C109.604 85.6597 109.552 85.7852 109.552 85.9159C109.552 86.0467 109.604 86.1721 109.697 86.2646C109.789 86.3571 109.915 86.409 110.046 86.409H133.289C133.418 86.4083 133.542 86.3571 133.633 86.2664C133.725 86.1757 133.778 86.0528 133.78 85.9239C133.782 85.795 133.733 85.6704 133.645 85.5768C133.556 85.4832 133.434 85.428 133.305 85.423H110.046V85.4229Z" fill="#E6E6E6"/>
<path d="M136.318 105.635H98.2829C98.0962 105.635 97.9172 105.561 97.7851 105.429C97.6531 105.297 97.5788 105.118 97.5786 104.931V95.4963C97.5789 95.3096 97.6531 95.1306 97.7852 94.9986C97.9172 94.8665 98.0962 94.7922 98.2829 94.792H136.318C136.505 94.7922 136.684 94.8665 136.816 94.9986C136.948 95.1306 137.023 95.3096 137.023 95.4963V104.931C137.023 105.118 136.948 105.297 136.816 105.429C136.684 105.561 136.505 105.635 136.318 105.636V105.635ZM98.2829 95.0737C98.1709 95.0737 98.0634 95.1183 97.9842 95.1976C97.9049 95.2768 97.8604 95.3842 97.8603 95.4963V104.931C97.8604 105.043 97.9049 105.151 97.9842 105.23C98.0634 105.309 98.1709 105.354 98.2829 105.354H136.318C136.431 105.354 136.538 105.309 136.617 105.23C136.696 105.151 136.741 105.043 136.741 104.931V95.4963C136.741 95.3842 136.696 95.2768 136.617 95.1976C136.538 95.1183 136.431 95.0737 136.318 95.0737H98.2829Z" fill="#E6E6E6"/>
<path d="M110.046 98.2412C109.915 98.2412 109.789 98.2932 109.697 98.3856C109.604 98.4781 109.552 98.6035 109.552 98.7343C109.552 98.8651 109.604 98.9905 109.697 99.0829C109.789 99.1754 109.915 99.2274 110.046 99.2274H133.289C133.354 99.2298 133.419 99.2196 133.479 99.1971C133.54 99.1746 133.596 99.1404 133.643 99.0964C133.691 99.0524 133.729 98.9994 133.756 98.9406C133.783 98.8818 133.799 98.8182 133.801 98.7534C133.804 98.6887 133.793 98.6241 133.771 98.5634C133.748 98.5027 133.714 98.447 133.67 98.3994C133.626 98.3519 133.573 98.3135 133.514 98.2865C133.455 98.2594 133.392 98.2442 133.327 98.2417C133.32 98.2415 133.313 98.2414 133.305 98.2414H110.046V98.2412Z" fill="#E6E6E6"/>
<path d="M110.046 101.2C109.915 101.2 109.789 101.252 109.697 101.345C109.604 101.437 109.552 101.562 109.552 101.693C109.552 101.824 109.604 101.949 109.697 102.042C109.789 102.134 109.915 102.186 110.046 102.186H133.289C133.354 102.189 133.419 102.179 133.479 102.156C133.54 102.134 133.596 102.099 133.643 102.055C133.691 102.011 133.729 101.958 133.756 101.9C133.783 101.841 133.799 101.777 133.801 101.712C133.804 101.648 133.793 101.583 133.771 101.522C133.748 101.462 133.714 101.406 133.67 101.358C133.626 101.311 133.573 101.273 133.514 101.245C133.455 101.218 133.392 101.203 133.327 101.201C133.32 101.2 133.313 101.2 133.305 101.2H110.046V101.2Z" fill="#E6E6E6"/>
<path d="M123.118 35.9237H117.757V30.5625H116.863V35.9237H111.502V36.8172H116.863V42.1784H117.757V36.8172H123.118V35.9237Z" fill="#227C9D"/>
<path d="M40.7903 103.341C40.7903 103.341 36.4068 108.142 35.7805 119.205C35.1543 130.268 34.9456 131.521 34.9456 131.521H50.6012L53.5221 124.007L56.8627 131.52H71.6831C71.6831 131.52 73.3531 108.559 71.6831 107.932C70.0132 107.306 40.7903 103.341 40.7903 103.341Z" fill="#2F2E41"/>
<path d="M61.7682 46.8767C65.9183 46.8767 69.2827 43.5123 69.2827 39.3622C69.2827 35.212 65.9183 31.8477 61.7682 31.8477C57.618 31.8477 54.2537 35.212 54.2537 39.3622C54.2537 43.5123 57.618 46.8767 61.7682 46.8767Z" fill="#FFB8B8"/>
<path d="M94.2272 103.551L82.7466 82.6766L76.0662 71.8222L83.9989 68.2734L88.3825 76.8318C88.3825 76.8318 94.2272 85.3901 95.6882 92.4874C97.1492 99.5848 98.6106 102.925 98.6106 102.925L94.2272 103.551Z" fill="#FFB8B8"/>
<path d="M30.9783 97.4965L48.095 82.4673L47.2609 70.3604H42.4599L40.9979 76.6226L27.2212 94.7829L30.9783 97.4965Z" fill="#FFB8B8"/>
<path d="M53.1054 50.5304C53.1054 50.5304 59.3047 53.1293 63.9281 49.9512C63.9281 49.9512 75.2316 51.7832 75.8579 52.4091C76.4841 53.0349 75.2316 71.8213 75.2316 71.8213L72.7271 82.4675C72.7271 82.4675 76.2757 98.7491 71.0572 102.924L72.1009 108.56C72.1009 108.56 48.931 110.23 39.7463 104.594L41.4159 98.9575L45.7995 81.2147L43.0858 56.5839C43.0858 56.5839 45.1725 50.9479 53.1054 50.5304Z" fill="#E4E4E4"/>
<path d="M70.535 53.3479L75.9623 52.5137C75.9623 52.5137 78.676 52.9312 81.1809 58.1497C83.6858 63.3682 86.3994 70.2565 86.3994 70.2565L77.0062 74.4313L69.283 62.3245L70.535 53.3479Z" fill="#E4E4E4"/>
<path d="M44.3386 55.54L43.0862 56.5837C43.0862 56.5837 41.4163 62.6372 41.4163 66.8119V72.4479L48.931 73.2829L44.3386 55.54Z" fill="#E4E4E4"/>
<path d="M54.2557 41.4018C54.2557 41.4018 53.2342 40.2986 53.3377 38.9178C53.4059 38.1323 53.3556 37.341 53.1887 36.5704C53.1887 36.5704 53.5085 34.3103 53.9806 33.0001C54.4526 31.6899 54.0546 31.2341 56.0839 30.5189C58.1132 29.8037 56.8213 27.2173 62.804 29.279C63.0315 29.5088 63.322 29.666 63.6388 29.7308C63.9556 29.7956 64.2845 29.7651 64.584 29.6432C65.6886 29.2387 66.3542 30.7561 66.3542 30.7561C66.3542 30.7561 67.0432 30.1908 67.4298 30.7785C67.8164 31.3663 69.6862 30.0268 70.3721 34.3021C71.0581 38.5775 68.7041 42.3901 68.7041 42.3901C68.7041 42.3901 68.3737 35.5487 64.4883 35.4245C60.6029 35.3003 56.209 33.8288 55.664 36.7097C55.119 39.5906 54.2557 41.4018 54.2557 41.4018Z" fill="#2F2E41"/>
<path d="M28.2402 100.694C30.0287 100.694 31.4786 99.2438 31.4786 97.4553C31.4786 95.6667 30.0287 94.2168 28.2402 94.2168C26.4516 94.2168 25.0017 95.6667 25.0017 97.4553C25.0017 99.2438 26.4516 100.694 28.2402 100.694Z" fill="#FFB8B8"/>
<path d="M4.89375 119.328L58.2294 108.681L53.7722 86.3525L0.436523 96.9985L4.89375 119.328Z" fill="white"/>
<path d="M58.666 108.972L4.60268 119.765L0 96.7069L54.0633 85.915L58.666 108.972ZM5.18523 118.891L57.7933 108.39L53.4809 86.7879L0.873088 97.2896L5.18523 118.891Z" fill="#E4E4E4"/>
<path d="M22.2839 112.23L22.262 112.239C22.0881 112.311 21.9118 112.378 21.7307 112.438C21.6699 112.458 21.6068 112.478 21.5456 112.496C21.4845 112.515 21.4213 112.534 21.358 112.551C21.2549 112.581 21.1495 112.607 21.0434 112.632C20.998 112.643 20.9503 112.653 20.9045 112.663L20.877 112.669C20.8201 112.681 20.7633 112.693 20.7061 112.703L20.5582 112.729C20.5306 112.735 20.5035 112.739 20.4767 112.743C19.3005 112.927 18.0977 112.843 16.9589 112.495C15.8201 112.148 14.7748 111.547 13.9017 110.738C13.0286 109.928 12.3503 108.932 11.918 107.822C11.4856 106.713 11.3104 105.52 11.4055 104.333C11.5007 103.146 11.8636 101.997 12.4671 100.97C13.0706 99.9441 13.8989 99.068 14.8898 98.4079C15.8807 97.7479 17.0083 97.3211 18.1879 97.1597C19.3675 96.9982 20.5684 97.1063 21.7002 97.4758C20.6759 98.4011 19.9127 99.5794 19.4873 100.893C19.0619 102.206 18.9891 103.608 19.2763 104.958C19.5634 106.308 20.2004 107.559 21.1234 108.585C22.0464 109.612 23.223 110.378 24.5352 110.806C23.8717 111.406 23.1104 111.888 22.2844 112.231L22.2839 112.23Z" fill="#227C9D"/>
<path d="M33.5432 108.224C33.8874 108.397 34.2441 108.543 34.6102 108.662C33.5852 109.591 32.3325 110.232 30.9795 110.52L30.8805 110.541C29.6993 110.778 28.4795 110.741 27.3148 110.432C26.1502 110.124 25.0719 109.553 24.1627 108.762C23.2536 107.972 22.538 106.983 22.0709 105.873C21.6038 104.762 21.3977 103.559 21.4684 102.356C21.5392 101.154 21.8849 99.9834 22.479 98.9353C23.0731 97.8873 23.8997 96.9894 24.8953 96.311C25.8908 95.6325 27.0287 95.1915 28.2215 95.0218C29.4142 94.8522 30.63 94.9584 31.7752 95.3324C30.8204 96.1904 30.0902 97.2693 29.6486 98.4746C29.2069 99.68 29.0672 100.975 29.2416 102.247C29.416 103.519 29.8993 104.729 30.6491 105.77C31.399 106.812 32.3926 107.655 33.5432 108.224L33.5432 108.224Z" fill="#227C9D"/>
<path d="M47.117 99.037C47.441 100.561 47.306 102.146 46.729 103.593C46.152 105.04 45.1589 106.283 43.8753 107.165C42.5917 108.048 41.0753 108.53 39.5178 108.55C37.9603 108.571 36.4317 108.129 35.1253 107.281C33.8189 106.433 32.7933 105.216 32.1783 103.785C31.5632 102.354 31.3864 100.773 31.67 99.241C31.9537 97.7094 32.6852 96.2964 33.772 95.1805C34.8587 94.0647 36.252 93.2961 37.7755 92.9721C38.7871 92.7569 39.8312 92.7432 40.8481 92.9315C41.865 93.1199 42.8349 93.5067 43.7023 94.0699C44.5698 94.633 45.3178 95.3615 45.9037 96.2138C46.4896 97.0661 46.9019 98.0254 47.117 99.037Z" fill="#227C9D"/>
<path d="M43.819 106.065C43.8935 106.413 43.9324 106.768 43.9352 107.125C43.068 107.732 42.0875 108.158 41.0521 108.378C40.0167 108.599 38.9476 108.608 37.9085 108.407C37.766 108.08 37.6569 107.74 37.5831 107.391C37.1977 105.579 37.795 103.851 38.9567 103.069C38.4039 102.964 37.9046 102.67 37.5436 102.238C37.1826 101.807 36.9821 101.263 36.9762 100.7C36.9703 100.138 37.1593 99.5902 37.5112 99.151C37.8631 98.7117 38.3561 98.4077 38.9066 98.2906C39.4571 98.1736 40.0312 98.2506 40.5313 98.5086C41.0315 98.7667 41.427 99.1899 41.6506 99.7063C41.8742 100.223 41.9122 100.801 41.7582 101.342C41.6041 101.883 41.2675 102.355 40.8055 102.676C42.1853 102.917 43.4337 104.252 43.819 106.065Z" fill="white"/>
<path d="M33.5431 108.225L33.5482 108.249C33.6144 108.687 33.6444 109.129 33.6379 109.572C32.8221 110.144 31.9102 110.31 30.8805 110.542L30.7815 110.563C29.7462 110.784 28.6769 110.794 27.6378 110.591C27.6237 110.561 27.6114 110.531 27.601 110.499C27.4755 110.201 27.3789 109.892 27.3126 109.575C26.9272 107.763 27.5245 106.036 28.6862 105.254C28.1334 105.149 27.634 104.855 27.2729 104.423C26.9119 103.992 26.7114 103.448 26.7055 102.885C26.6996 102.323 26.8886 101.775 27.2405 101.336C27.5925 100.897 28.0856 100.593 28.6361 100.476C28.8227 100.435 29.0134 100.418 29.2042 100.424C29.0517 102.011 29.3851 103.607 30.16 105C30.9349 106.393 32.1148 107.518 33.5434 108.226L33.5431 108.225Z" fill="white"/>
<path d="M23.6632 110.462C23.7257 110.776 23.7583 111.095 23.7605 111.415C23.1372 111.852 22.4536 112.197 21.7311 112.437C21.6702 112.458 21.6072 112.477 21.546 112.495C21.4849 112.514 21.4217 112.533 21.3584 112.551C21.2554 112.58 21.1499 112.607 21.0439 112.631C21.0222 112.638 20.9985 112.643 20.9764 112.647L20.8774 112.668C20.8205 112.68 20.7637 112.692 20.7065 112.703L20.5586 112.729C20.5311 112.734 20.5039 112.738 20.4771 112.742C19.5671 112.889 18.6383 112.874 17.7337 112.697C17.7314 112.693 17.7298 112.689 17.7292 112.684C17.7166 112.659 17.7059 112.632 17.697 112.605C17.5715 112.307 17.4749 111.997 17.4085 111.681C17.0232 109.869 17.6205 108.141 18.7822 107.359C18.2293 107.254 17.73 106.961 17.3689 106.529C17.0078 106.097 16.8073 105.554 16.8014 104.991C16.7955 104.428 16.9846 103.881 17.3365 103.441C17.6884 103.002 18.1815 102.698 18.7321 102.581C18.8642 102.553 18.9984 102.536 19.1334 102.53C18.9693 104.159 19.3174 105.799 20.1294 107.221C20.9414 108.643 22.1768 109.776 23.6633 110.462L23.6632 110.462Z" fill="white"/>
<path d="M104.807 70.0734C104.807 70.2516 104.789 70.4295 104.754 70.6041C104.266 70.8108 103.743 70.9173 103.213 70.9173C102.684 70.9173 102.16 70.8108 101.673 70.6041C101.637 70.4295 101.619 70.2516 101.619 70.0734C101.619 69.147 102.091 68.364 102.741 68.1024C102.481 67.9933 102.267 67.7977 102.136 67.549C102.004 67.3002 101.963 67.0136 102.018 66.7377C102.074 66.4618 102.223 66.2137 102.441 66.0354C102.659 65.8572 102.932 65.7598 103.213 65.7598C103.495 65.7598 103.767 65.8572 103.985 66.0354C104.203 66.2137 104.352 66.4618 104.408 66.7377C104.464 67.0136 104.422 67.3002 104.29 67.549C104.159 67.7977 103.945 67.9933 103.686 68.1024C104.336 68.364 104.807 69.147 104.807 70.0734Z" fill="#227C9D"/>
<path d="M104.807 86.171C104.807 86.3493 104.789 86.5271 104.754 86.7018C104.266 86.9084 103.743 87.015 103.213 87.015C102.684 87.015 102.16 86.9084 101.673 86.7018C101.637 86.5271 101.619 86.3493 101.619 86.171C101.619 85.2446 102.091 84.4617 102.741 84.2C102.481 84.0909 102.267 83.8954 102.136 83.6466C102.004 83.3979 101.963 83.1112 102.018 82.8354C102.074 82.5595 102.223 82.3113 102.441 82.1331C102.659 81.9548 102.932 81.8574 103.213 81.8574C103.495 81.8574 103.767 81.9548 103.985 82.1331C104.203 82.3113 104.352 82.5595 104.408 82.8354C104.464 83.1112 104.422 83.3979 104.29 83.6466C104.159 83.8954 103.945 84.0909 103.686 84.2C104.336 84.4617 104.807 85.2446 104.807 86.171Z" fill="#227C9D"/>
<path d="M104.807 101.948C104.807 102.127 104.789 102.304 104.754 102.479C104.266 102.686 103.743 102.792 103.213 102.792C102.684 102.792 102.16 102.686 101.673 102.479C101.637 102.304 101.619 102.127 101.619 101.948C101.619 101.022 102.091 100.239 102.741 99.9774C102.481 99.8683 102.267 99.6727 102.136 99.424C102.004 99.1752 101.963 98.8886 102.018 98.6127C102.074 98.3368 102.223 98.0887 102.441 97.9104C102.659 97.7322 102.932 97.6348 103.213 97.6348C103.495 97.6348 103.767 97.7322 103.985 97.9104C104.203 98.0887 104.352 98.3368 104.408 98.6127C104.464 98.8886 104.422 99.1752 104.29 99.424C104.159 99.6727 103.945 99.8683 103.686 99.9774C104.336 100.239 104.807 101.022 104.807 101.948Z" fill="#227C9D"/>
<path d="M96.6179 107.355C98.2531 107.355 99.5787 106.03 99.5787 104.394C99.5787 102.759 98.2531 101.434 96.6179 101.434C94.9826 101.434 93.657 102.759 93.657 104.394C93.657 106.03 94.9826 107.355 96.6179 107.355Z" fill="#FFB8B8"/>
</g>
<defs>
<clipPath id="clip0_1084_4462">
<rect width="150" height="131.521" fill="white"/>
</clipPath>
</defs>
</svg>
