<svg width="97" height="40" viewBox="0 0 97 40" fill="none" xmlns="http://www.w3.org/2000/svg">
<g clip-path="url(#clip0_1084_3230)">
<path d="M58.9937 20.4L64.6719 14.7191L58.9937 9.03814L60.7249 7.30664L68.1342 14.7191L60.7249 22.1315L58.9937 20.4Z" fill="#E6E6E6"/>
<path d="M45.0868 12.4404H42.7786V14.7568H45.0868V12.4404Z" fill="#E6E6E6"/>
<path d="M54.3657 12.4404H52.0575V14.7568H54.3657V12.4404Z" fill="#E6E6E6"/>
<path d="M49.7262 12.4404H47.418V14.7568H49.7262V12.4404Z" fill="#E6E6E6"/>
<path d="M39.651 20.3424L33.9671 14.6615L39.6452 8.98052L37.9141 7.24902L30.5106 14.6615L37.9199 22.0739L39.651 20.3424Z" fill="#E6E6E6"/>
<path d="M58.9937 19.2995L64.6719 13.6186L58.9937 7.93755L60.7249 6.20605L68.1342 13.6186L60.7249 21.031L58.9937 19.2995Z" fill="#227C9D"/>
<path d="M42.7786 14.0244H45.0868V11.708H42.7786L42.7786 14.0244ZM54.3657 11.708H52.0575V14.0244H54.3657V11.708ZM47.4181 14.0244H49.7262V11.708H47.4181V14.0244Z" fill="#227C9D"/>
<path d="M39.651 19.2418L33.9671 13.5609L39.6452 7.87993L37.9141 6.14844L30.5106 13.5609L37.9199 20.9733L39.651 19.2418Z" fill="#227C9D"/>
<path d="M11.855 37.7643L13.1472 38.0778L14.967 33.2254L13.0599 32.7627L11.855 37.7643Z" fill="#A0616A"/>
<path d="M11.2432 38.9293L11.64 37.2822L14.1681 37.8956C14.5936 37.9993 14.9606 38.2681 15.1888 38.6431C15.417 39.0181 15.4876 39.4686 15.3852 39.8958L15.3765 39.9321L11.2432 38.9293Z" fill="#2F2E41"/>
<path d="M17.5751 38.6478L18.9045 38.6477L19.5369 33.502L17.575 33.502L17.5751 38.6478Z" fill="#A0616A"/>
<path d="M17.2531 38.2296L19.854 38.2295H19.8541C20.2921 38.2295 20.7121 38.4041 21.0218 38.7149C21.3315 39.0256 21.5055 39.4472 21.5055 39.8867V39.924L17.2532 39.9242L17.2531 38.2296Z" fill="#2F2E41"/>
<path d="M17.2632 36.8677L17.4818 28.8624L17.1874 25.6163L16.6129 28.1144L14.1027 36.3293L11.9387 35.7578L14.4449 26.9002L13.9006 21.2189L15.4645 20.21L15.4856 20.2138L20.8287 21.2022L19.538 36.6395L17.2632 36.8677Z" fill="#2F2E41"/>
<path d="M19.3779 22.3167C18.9476 22.3167 18.4444 22.1776 17.8842 21.7808C16.0917 20.5112 13.9544 21.8769 13.933 21.8908L13.8463 21.9474L13.8493 21.8436C13.8515 21.7696 14.0661 14.4175 14.0661 12.0517C14.0661 9.60743 15.6552 7.8228 16.1422 7.33408C16.6202 6.85429 17.0225 6.86491 17.5316 6.8782C17.6194 6.88043 17.7108 6.88287 17.807 6.88287C18.4724 6.88287 19.1193 7.5244 19.1465 7.55171L19.1595 7.56478L19.162 7.58306L21.0083 21.5343L20.9942 21.5523C20.9856 21.5632 20.3793 22.3167 19.3779 22.3167Z" fill="#CCCCCC"/>
<path d="M20.4265 4.66802C21.132 3.37284 20.6577 1.74894 19.3671 1.04093C18.0765 0.332918 16.4583 0.808912 15.7528 2.10409C15.0473 3.39927 15.5216 5.02317 16.8122 5.73118C18.1028 6.43919 19.721 5.9632 20.4265 4.66802Z" fill="#A0616A"/>
<path d="M22.1666 24.5498C22.0406 24.4518 21.9375 24.3272 21.8646 24.185C21.7918 24.0427 21.7509 23.8861 21.7449 23.7262C21.7388 23.5664 21.7678 23.4071 21.8297 23.2597C21.8917 23.1123 21.985 22.9803 22.1033 22.8731L20.5909 19.293L22.5712 19.6587L23.7038 23.0024C23.8702 23.2137 23.9536 23.4789 23.9381 23.7478C23.9227 24.0167 23.8095 24.2705 23.62 24.4613C23.4306 24.652 23.1779 24.7664 22.91 24.7827C22.6422 24.799 22.3776 24.7161 22.1666 24.5498Z" fill="#A0616A"/>
<path d="M21.7381 22.5124L19.0053 16.9177L17.807 12.7069L17.808 9.04891C17.8107 9.03446 18.0924 7.61155 19.1365 7.70996C20.0832 7.80198 20.5931 8.26658 20.8415 9.26346C21.0524 10.1103 20.7639 12.6226 20.736 12.8597C20.9192 13.2956 23.6676 19.8675 23.2126 20.6588C23.1956 20.6897 23.1708 20.7155 23.1407 20.7336L23.6277 21.7655L21.7381 22.5124Z" fill="#CCCCCC"/>
<path d="M17.7491 4.39311C18.0684 4.43479 18.3092 4.10699 18.4209 3.80398C18.5326 3.50096 18.6177 3.14818 18.8953 2.9845C19.2745 2.76088 19.7597 3.02984 20.1933 2.95606C20.683 2.87274 21.0014 2.35188 21.0264 1.85403C21.0514 1.35618 20.8539 0.877357 20.6602 0.418345L20.5926 0.988794C20.6017 0.795455 20.5611 0.603022 20.4749 0.4299C20.3886 0.256778 20.2596 0.108758 20.1 0L20.1872 0.837043C20.1686 0.72156 20.1275 0.610891 20.0663 0.511385C20.005 0.411879 19.9247 0.325495 19.8301 0.257194C19.7355 0.188893 19.6283 0.140018 19.5149 0.113373C19.4014 0.0867282 19.2837 0.0828386 19.1687 0.101928L19.1825 0.600671C18.6168 0.533172 18.0463 0.465578 17.4789 0.517002C16.9116 0.568426 16.3404 0.748555 15.9104 1.1235C15.2672 1.68435 15.0323 2.60787 15.1112 3.45929C15.19 4.3107 15.5403 5.11054 15.9053 5.8832C15.9971 6.0776 16.1241 6.29697 16.3371 6.32173C16.5284 6.34398 16.7035 6.18347 16.763 5.99961C16.8088 5.81096 16.807 5.61382 16.7578 5.42603C16.704 5.13905 16.6362 4.84572 16.6868 4.55815C16.7374 4.27058 16.9435 3.9864 17.2324 3.95116C17.5212 3.91592 17.8168 4.24727 17.6779 4.50389L17.7491 4.39311Z" fill="#2F2E41"/>
<path d="M83.6686 24.1941C83.5797 24.0924 83.5141 23.9724 83.4764 23.8426C83.4388 23.7127 83.4299 23.5761 83.4505 23.4425C83.4712 23.3088 83.5207 23.1813 83.5958 23.0689C83.6708 22.9566 83.7695 22.8621 83.8848 22.7921L83.2032 19.5762L84.7884 20.1995L85.1926 23.1578C85.2969 23.3601 85.3236 23.5937 85.2677 23.8144C85.2118 24.0351 85.0771 24.2276 84.8893 24.3553C84.7014 24.4831 84.4734 24.5372 84.2484 24.5075C84.0234 24.4778 83.8171 24.3663 83.6686 24.1941V24.1941Z" fill="#FFB8B8"/>
<path d="M83.4885 21.6843L83.48 21.6527C82.6231 18.4719 81.7373 15.1838 80.6558 11.6037L80.6487 11.5803L80.6726 11.5663C81.2754 11.2133 82.1814 11.2368 82.78 11.6209C83.051 11.7961 83.2618 12.0506 83.3839 12.3499C83.5059 12.6493 83.5334 12.9791 83.4625 13.2947L84.2512 17.4219C84.5719 18.771 84.9038 20.1674 85.221 21.5444L85.23 21.5834L85.1809 21.5865C84.6033 21.6234 84.0066 21.6615 83.5286 21.6826L83.4885 21.6843Z" fill="#CCCCCC"/>
<path d="M76.2059 38.8039H75.0819L74.547 34.4531H76.2059V38.8039Z" fill="#FFB8B8"/>
<path d="M76.4926 39.8973H72.8683V39.8512C72.8687 39.4759 73.0175 39.1161 73.2819 38.8507C73.5464 38.5853 73.905 38.436 74.279 38.4355H76.4926L76.4926 39.8973Z" fill="#2F2E41"/>
<path d="M86.7975 37.873L85.7265 38.2155L83.9005 34.233L85.4812 33.7275L86.7975 37.873Z" fill="#FFB8B8"/>
<path d="M83.9482 39.9315L83.9343 39.8877C83.8211 39.5299 83.854 39.1418 84.0257 38.8083C84.1974 38.4748 84.4939 38.2234 84.8501 38.109L86.9592 37.4346L87.4014 38.8273L83.9482 39.9315Z" fill="#2F2E41"/>
<path d="M81.1084 8.68856C82.352 8.68856 83.3602 7.67681 83.3602 6.42875C83.3602 5.1807 82.352 4.16895 81.1084 4.16895C79.8647 4.16895 78.8566 5.1807 78.8566 6.42875C78.8566 7.67681 79.8647 8.68856 81.1084 8.68856Z" fill="#FFB8B8"/>
<path d="M82.1195 6.01028C82.1322 5.09882 81.7521 4.19613 81.1644 3.74229C80.8874 3.52206 80.5429 3.40511 80.1896 3.41137C79.8363 3.41764 79.496 3.54674 79.227 3.77665C78.6484 4.25117 78.2861 5.16702 78.3167 6.07772C79.6132 6.08142 80.9097 6.08512 82.1195 6.01028Z" fill="#2F2E41"/>
<path d="M76.8476 37.4037L76.8025 37.3993C75.8247 37.303 74.8135 37.2035 73.8579 37.1921L73.8059 37.1915L73.813 37.1398C74.0394 35.4942 74.1354 33.7834 74.2282 32.1289C74.3199 30.4952 74.4146 28.806 74.6354 27.2016C74.7288 26.772 74.8198 26.3475 74.9105 25.9245C75.6609 22.4242 76.3698 19.1181 77.833 15.8454L77.8468 15.8145L77.8803 15.8185C79.2532 15.9852 80.5724 16.4879 81.5949 17.2339L81.6147 17.2483L81.6137 17.2729C81.594 17.7812 81.5736 18.3067 81.6038 18.7854C82.0679 19.4325 82.3754 20.1791 82.5019 20.9662C82.6285 21.7533 82.5707 22.5591 82.333 23.3198C82.7356 24.6701 83.1519 26.0658 83.5765 27.4427C84.6078 30.28 85.675 33.2163 86.7689 36.1927L86.7868 36.2415L86.7364 36.2534C85.9493 36.4388 85.1374 36.63 84.3364 36.7042L84.3062 36.707L84.2918 36.6802C82.2492 32.8655 80.5881 28.8572 79.3328 24.714C79.0595 25.5505 78.6657 26.3056 78.2842 27.0371C77.9194 27.7023 77.5984 28.3909 77.3232 29.0982C77.1544 30.4895 77.1096 31.9968 77.0663 33.4545C77.0254 34.8327 76.9867 36.1345 76.8526 37.3585L76.8476 37.4037Z" fill="#2F2E41"/>
<path d="M80.3396 3.78442C81.3157 3.57338 82.3953 3.77416 83.1619 4.43504C83.9284 5.09592 84.3176 6.23923 84.0027 7.21976C83.6878 8.20029 82.6187 8.89019 81.652 8.63698C81.9289 7.85377 81.6173 6.89218 80.9404 6.44105C80.1376 5.90605 79.9166 4.62877 80.3396 3.78442Z" fill="#2F2E41"/>
<path d="M81.5247 17.3318L81.489 17.3155C80.2438 16.7454 79.0229 16.308 77.8789 15.9089L77.8438 15.9013L77.8438 15.7992L77.8665 15.8071C77.8713 15.7965 77.8767 15.7845 77.8821 15.7725C77.8977 15.7378 77.9084 15.7142 77.9175 15.6986L77.9172 15.6984C78.0126 15.5034 78.0884 15.3149 78.1617 15.1327C78.2374 14.9446 78.3155 14.7504 78.4164 14.5449C78.1718 14.2987 78.0043 13.9861 77.9346 13.6455C77.865 13.305 77.8961 12.9514 78.0243 12.6285C78.277 12.0274 78.9213 11.5593 79.5983 11.4816C79.8464 10.7963 80.3992 9.35622 80.3992 9.35622C80.3992 9.35622 81.5615 9.32419 82.029 9.26466L82.0368 9.26367L82.0446 9.26538C83.0651 9.48979 83.9171 10.4589 84.1164 11.622C84.2847 12.6038 84.0292 13.7267 83.3969 14.784C83.0726 15.301 82.7139 15.7956 82.3234 16.2643C82.0386 16.6216 81.7697 16.9591 81.5463 17.299L81.5247 17.3318Z" fill="#CCCCCC"/>
<path d="M83.7786 5.12373C83.0953 5.02138 82.5589 4.32046 82.6365 3.63157C82.7142 2.94269 83.3931 2.37977 84.0819 2.4332C84.7707 2.48664 85.3554 3.14758 85.3266 3.84027C85.2979 4.53295 84.651 5.25442 83.7786 5.12373Z" fill="#2F2E41"/>
<path d="M83.6719 4.67631C82.9886 4.57395 82.4522 3.87303 82.5299 3.18415C82.5637 2.94983 82.6562 2.72794 82.7986 2.53915C82.9409 2.35037 83.1286 2.20083 83.3442 2.10449C82.7931 2.22552 82.3189 2.70737 82.2548 3.27616C82.1771 3.96504 82.7136 4.66596 83.3969 4.76831C83.6515 4.80841 83.9122 4.77181 84.1461 4.66315C83.9901 4.69602 83.8295 4.70048 83.6719 4.67631Z" fill="#2F2E41"/>
<path d="M70.4184 16.8198C70.4843 16.7018 70.5752 16.5997 70.6846 16.5208C70.7941 16.4419 70.9195 16.388 71.0519 16.363C71.1844 16.338 71.3207 16.3424 71.4513 16.376C71.5818 16.4095 71.7035 16.4714 71.8076 16.5572L74.602 14.8408L74.5446 16.5484L71.8998 17.9166C71.7445 18.0826 71.5339 18.1857 71.3079 18.2063C71.0819 18.227 70.8562 18.1637 70.6736 18.0285C70.491 17.8933 70.3642 17.6956 70.3171 17.4728C70.2701 17.25 70.3061 17.0177 70.4184 16.8198V16.8198Z" fill="#FFB8B8"/>
<path d="M72.7159 15.8133L72.7428 15.7948C75.4457 13.9241 78.2398 11.9904 81.2432 9.77429L81.2628 9.75977L81.2839 9.77769C81.8164 10.2304 82.0962 11.0955 81.9347 11.7899C81.8605 12.1047 81.6916 12.389 81.451 12.6042C81.2104 12.8195 80.9097 12.9553 80.5896 12.9933L76.9748 15.1148C75.8141 15.8677 74.6126 16.647 73.4247 17.406L73.391 17.4275L73.3717 17.382C73.1446 16.8478 72.91 16.296 72.731 15.8507L72.7159 15.8133Z" fill="#CCCCCC"/>
<path d="M35.0227 40.0004H0.0916824C0.0673667 40.0004 0.0440469 39.9907 0.0268531 39.9735C0.0096593 39.9562 0 39.9328 0 39.9084C0 39.884 0.0096593 39.8606 0.0268531 39.8434C0.0440469 39.8261 0.0673667 39.8164 0.0916824 39.8164H35.0227C35.047 39.8164 35.0703 39.8261 35.0875 39.8434C35.1047 39.8606 35.1144 39.884 35.1144 39.9084C35.1144 39.9328 35.1047 39.9562 35.0875 39.9735C35.0703 39.9907 35.047 40.0004 35.0227 40.0004Z" fill="#3F3D56"/>
<path d="M96.9083 40.0004H61.9773C61.953 40.0004 61.9297 39.9907 61.9125 39.9735C61.8953 39.9562 61.8856 39.9328 61.8856 39.9084C61.8856 39.884 61.8953 39.8606 61.9125 39.8434C61.9297 39.8261 61.953 39.8164 61.9773 39.8164H96.9083C96.9326 39.8164 96.9559 39.8261 96.9731 39.8434C96.9903 39.8606 97 39.884 97 39.9084C97 39.9328 96.9903 39.9562 96.9731 39.9735C96.9559 39.9907 96.9326 40.0004 96.9083 40.0004Z" fill="#3F3D56"/>
</g>
<defs>
<clipPath id="clip0_1084_3230">
<rect width="97" height="40" fill="white"/>
</clipPath>
</defs>
</svg>
