<svg width="20" height="20" viewBox="0 0 20 20" fill="none" xmlns="http://www.w3.org/2000/svg">
<g clip-path="url(#clip0_1084_2965)">
<path d="M9.99996 1.66699C8.35179 1.66699 6.74062 2.15573 5.37021 3.07141C3.9998 3.98709 2.9317 5.28858 2.30097 6.8113C1.67024 8.33401 1.50521 10.0096 1.82675 11.6261C2.1483 13.2426 2.94197 14.7274 4.10741 15.8929C5.27284 17.0583 6.7577 17.852 8.37421 18.1735C9.99072 18.4951 11.6663 18.3301 13.189 17.6993C14.7117 17.0686 16.0132 16.0005 16.9289 14.6301C17.8446 13.2597 18.3333 11.6485 18.3333 10.0003C18.3333 8.90598 18.1177 7.82234 17.699 6.8113C17.2802 5.80025 16.6663 4.88159 15.8925 4.10777C15.1187 3.33395 14.2 2.72012 13.189 2.30133C12.1779 1.88254 11.0943 1.66699 9.99996 1.66699ZM9.99996 16.667C8.68142 16.667 7.39249 16.276 6.29616 15.5435C5.19983 14.8109 4.34535 13.7697 3.84077 12.5515C3.33618 11.3334 3.20416 9.99293 3.46139 8.69972C3.71863 7.40652 4.35357 6.21863 5.28592 5.28628C6.21827 4.35393 7.40615 3.71899 8.69936 3.46176C9.99257 3.20452 11.333 3.33654 12.5512 3.84113C13.7694 4.34571 14.8105 5.2002 15.5431 6.29652C16.2756 7.39285 16.6666 8.68178 16.6666 10.0003C16.6666 11.7684 15.9643 13.4641 14.714 14.7144C13.4638 15.9646 11.7681 16.667 9.99996 16.667Z" fill="white"/>
<path d="M10 5.00006C9.22649 5.00006 8.48463 5.30735 7.93765 5.85433C7.39066 6.40131 7.08337 7.14317 7.08337 7.91672C7.08337 8.13774 7.17117 8.3497 7.32745 8.50598C7.48373 8.66226 7.69569 8.75006 7.91671 8.75006C8.13772 8.75006 8.34968 8.66226 8.50596 8.50598C8.66224 8.3497 8.75004 8.13774 8.75004 7.91672C8.75004 7.6695 8.82335 7.42782 8.9607 7.22226C9.09806 7.0167 9.29328 6.85648 9.52169 6.76187C9.75009 6.66726 10.0014 6.64251 10.2439 6.69074C10.4864 6.73897 10.7091 6.85802 10.8839 7.03284C11.0587 7.20765 11.1778 7.43038 11.226 7.67286C11.2743 7.91534 11.2495 8.16667 11.1549 8.39508C11.0603 8.62348 10.9001 8.81871 10.6945 8.95606C10.4889 9.09341 10.2473 9.16672 10 9.16672C9.77903 9.16672 9.56707 9.25452 9.41079 9.4108C9.2545 9.56708 9.16671 9.77904 9.16671 10.0001V11.6667C9.16671 11.8877 9.2545 12.0997 9.41079 12.256C9.56707 12.4123 9.77903 12.5001 10 12.5001C10.2211 12.5001 10.433 12.4123 10.5893 12.256C10.7456 12.0997 10.8334 11.8877 10.8334 11.6667V10.7001C11.5068 10.5034 12.0864 10.0699 12.4654 9.47959C12.8445 8.88924 12.9973 8.18178 12.8958 7.48761C12.7943 6.79344 12.4454 6.15935 11.9132 5.70221C11.381 5.24508 10.7016 4.9957 10 5.00006Z" fill="white"/>
<path d="M9.99996 14.9997C10.4602 14.9997 10.8333 14.6266 10.8333 14.1663C10.8333 13.7061 10.4602 13.333 9.99996 13.333C9.53972 13.333 9.16663 13.7061 9.16663 14.1663C9.16663 14.6266 9.53972 14.9997 9.99996 14.9997Z" fill="white"/>
</g>
<defs>
<clipPath id="clip0_1084_2965">
<rect width="20" height="20" fill="white"/>
</clipPath>
</defs>
</svg>
